# xmcd
#
# Track frame offsets:
#	150
#	15895
#	38017
#	55852
#	94687
#	111745
#	139230
#	164830
#	193197
#	210545
#	231610
#	254612
#
# Disc length: 3831 seconds
#
# Revision: 1
# Processed by: cddbd v1.5.2PL0 Copyright (c) Steve Scherf et al.
# Submitted via: audiograbber 1.83.01
#
DISCID=b20ef50c
DTITLE=Various Artist - Voices Across the Canyon, Vol. 3
DYEAR=1998
DGENRE=Native American
TTITLE0=Paul horn and R. Carlos Nakai - Anasazi Journeys
TTITLE1=Primeaux and Mike - Cathedral
TTITLE2=R. Carlos Nakai - Secular Philosophy
TTITLE3=Canyon Symphony Orchestra, The Black Lodge Singers - Native Drumming: P
TTITLE3=art One
TTITLE4=Judy Trejo - Manuel Popeye McCloud's Flag Song/Tuhvan Dau Ya
TTITLE5=The Redhouse Family - Urban Indian
TTITLE6=Destine, Clan - Crazy Horse
TTITLE7=Red Tail Chasing Hawks - Red Thunder
TTITLE8=The Black Lodge Singers - Mickey Mouse
TTITLE9=Jay Begaye - Mother's Honor
TTITLE10=Canyon Symphony Orchestra, R. Carlos Nakai - Far from the Water
TTITLE11=Drepung Monks, Robert Tree Cody, William Eaton - The Fire Within
EXTD=YEAR: 1998 ID3G: 64
EXTT0=
EXTT1=
EXTT2=
EXTT3=
EXTT4=
EXTT5=
EXTT6=
EXTT7=
EXTT8=
EXTT9=
EXTT10=
EXTT11=
PLAYORDER=
